<svg xmlns="http://www.w3.org/2000/svg" width="369.999" height="300" viewBox="0 0 369.999 300">
  <g id="Group_55" data-name="Group 55" transform="translate(856 -959) rotate(90)">
    <path id="Path_450" data-name="Path 450" d="M319.2,77.065V68.041H281.455V57.48a4.607,4.607,0,0,0-4.66-4.48H174.4a4.607,4.607,0,0,0-4.66,4.48V68.041H132v9.024h37.741v6.016H132v9.024h37.741v10.626a4.553,4.553,0,0,0,4.66,4.414h4.731l6.772,18.2a4.441,4.441,0,0,0,4.249,2.853h23.367V305.682H202.166a4.356,4.356,0,0,0-4.5,4.348v9.188H132v9.024h65.669v6.016H132v9.024h65.669v7.553a4.465,4.465,0,0,0,4.5,4.479h46.865a4.465,4.465,0,0,0,4.5-4.479v-7.553H319.2v-9.024h-65.67v-6.016H319.2v-9.024h-65.67V310.03a4.356,4.356,0,0,0-4.5-4.348H237.675V128.2h23.038a4.442,4.442,0,0,0,4.227-2.8l7.079-18.26H276.8a4.553,4.553,0,0,0,4.659-4.414V92.105H319.2V83.081H281.455V77.065ZM244.468,314.706v31.585H206.727V314.706Zm-21.89-9.024V128.2h6.039V305.682Zm35.024-186.5H193.311l-4.529-12.032h73.529ZM272.4,98.122H178.8v-36.1h93.6Z" transform="translate(883.402 465.339)"/>
    <path id="Path_454" data-name="Path 454" d="M104.247,10H70.5A13.524,13.524,0,0,0,57,23.536v91.813A13.468,13.468,0,0,0,70.5,128.82h33.743a13.612,13.612,0,0,0,13.667-13.471V23.381A13.537,13.537,0,0,0,104.247,10ZM82.569,119.8H70.5a4.437,4.437,0,0,1-4.48-4.447v-12.1H74.3a4.512,4.512,0,0,0,0-9.024H66.024V74.674H74.3a4.512,4.512,0,1,0,0-9.024H66.024v-18.8H74.3a4.512,4.512,0,1,0,0-9.024H66.024V23.536a4.489,4.489,0,0,1,4.48-4.512H82.569ZM108.89,37.825h-8.272a4.512,4.512,0,0,0,0,9.024h8.272v18.8h-8.272a4.512,4.512,0,0,0,0,9.024h8.272V94.227h-8.272a4.512,4.512,0,0,0,0,9.024h8.272v12.1a4.575,4.575,0,0,1-4.643,4.447H91.593V19.024h12.654a4.63,4.63,0,0,1,4.643,4.512Z" transform="translate(902 476.002)" fill="#00aded"/>
    <path id="Path_449" data-name="Path 449" d="M421.41,10H387.667A13.664,13.664,0,0,0,374,23.537V115.35a13.612,13.612,0,0,0,13.667,13.471H421.41a13.468,13.468,0,0,0,13.5-13.471V23.537A13.524,13.524,0,0,0,421.41,10ZM400.321,119.8H387.667a4.575,4.575,0,0,1-4.643-4.447v-12.1H391.3a4.512,4.512,0,1,0,0-9.024h-8.272V74.675H391.3a4.512,4.512,0,1,0,0-9.024h-8.272v-18.8H391.3a4.512,4.512,0,1,0,0-9.024h-8.272V23.537a4.63,4.63,0,0,1,4.643-4.512h12.654ZM425.89,37.825h-8.272a4.512,4.512,0,0,0,0,9.024h8.272v18.8h-8.272a4.512,4.512,0,0,0,0,9.024h8.272V94.227h-8.272a4.512,4.512,0,0,0,0,9.024h8.272v12.1a4.437,4.437,0,0,1-4.48,4.447H409.345V19.024H421.41a4.489,4.489,0,0,1,4.48,4.512Z" transform="translate(824.086 476.001)" fill="#00aded"/>
    <path id="Path_455" data-name="Path 455" d="M104.247,344H70.5A13.468,13.468,0,0,0,57,357.471v91.813a13.524,13.524,0,0,0,13.5,13.537h33.743a13.664,13.664,0,0,0,13.667-13.537V357.471A13.612,13.612,0,0,0,104.247,344ZM82.569,453.8H70.5a4.489,4.489,0,0,1-4.48-4.512V437.252H74.3a4.512,4.512,0,1,0,0-9.024H66.024V408.674H74.3a4.512,4.512,0,1,0,0-9.024H66.024V380.1H74.3a4.512,4.512,0,1,0,0-9.024H66.024v-13.6a4.437,4.437,0,0,1,4.48-4.447H82.569Zm26.321-82.723h-8.272a4.512,4.512,0,1,0,0,9.024h8.272V399.65h-8.272a4.512,4.512,0,0,0,0,9.024h8.272v19.553h-8.272a4.512,4.512,0,0,0,0,9.024h8.272v12.032a4.63,4.63,0,0,1-4.643,4.512H91.593V353.024h12.654a4.575,4.575,0,0,1,4.643,4.447Z" transform="translate(902 393.179)" fill="#00aded"/>
    <path id="Path_451" data-name="Path 451" d="M421.41,344H387.667A13.612,13.612,0,0,0,374,357.471v91.813a13.664,13.664,0,0,0,13.667,13.537H421.41a13.524,13.524,0,0,0,13.5-13.537V357.471A13.468,13.468,0,0,0,421.41,344ZM400.321,453.8H387.667a4.63,4.63,0,0,1-4.643-4.512V437.252H391.3a4.512,4.512,0,1,0,0-9.024h-8.272V408.674H391.3a4.512,4.512,0,1,0,0-9.024h-8.272V380.1H391.3a4.512,4.512,0,1,0,0-9.024h-8.272v-13.6a4.575,4.575,0,0,1,4.643-4.447h12.654Zm25.569-82.723h-8.272a4.512,4.512,0,0,0,0,9.024h8.272V399.65h-8.272a4.512,4.512,0,0,0,0,9.024h8.272v19.553h-8.272a4.512,4.512,0,0,0,0,9.024h8.272v12.032a4.489,4.489,0,0,1-4.48,4.512H409.345V353.024H421.41a4.437,4.437,0,0,1,4.48,4.447Z" transform="translate(824.086 393.179)" fill="#00aded"/>
    <path id="Path_452" data-name="Path 452" d="M279.023,76H234.085a4.512,4.512,0,1,0,0,9.024h44.938a4.512,4.512,0,1,0,0-9.024Z" transform="translate(859.573 459.635)" fill="#00aded"/>
    <path id="Path_453" data-name="Path 453" d="M214.189,76h-3.677a4.512,4.512,0,0,0,0,9.024h3.674a4.512,4.512,0,1,0,0-9.024Z" transform="translate(865.323 459.635)" fill="#00aded"/>
  </g>
</svg>
