<svg xmlns="http://www.w3.org/2000/svg" width="184" height="55" viewBox="0 0 184 55">
  <g id="Logo_garage" data-name="Logo garage" transform="translate(-221.977 -296.658)">
    <path id="Path_461" data-name="Path 461" d="M840.962,296.7H670.909A6.935,6.935,0,0,0,664,303.624v4.556h2.157v-4.556a4.79,4.79,0,0,1,4.777-4.788H840.962a4.79,4.79,0,0,1,4.777,4.788v4.556H847.9v-4.556a6.924,6.924,0,0,0-6.935-6.924" transform="translate(-441.92 -0.042)" fill="#fff"/>
    <path id="Path_462" data-name="Path 462" d="M840.64,473.48H670.509a6.935,6.935,0,0,1-6.909-6.924V462h2.157v4.556a4.79,4.79,0,0,0,4.777,4.788H840.665a4.79,4.79,0,0,0,4.777-4.788V462H847.6v4.556a7.013,7.013,0,0,1-6.96,6.924" transform="translate(-441.623 -121.822)" fill="#fff"/>
    <text id="Godefroy" transform="translate(233.529 337.643)" fill="#fff" font-size="42" font-family="CorporateABQ-Light, Corporate A BQ" font-weight="300"><tspan x="0" y="0">Godefroy</tspan></text>
  </g>
</svg>
