<svg xmlns="http://www.w3.org/2000/svg" width="350" height="350" viewBox="0 0 350 350">
  <g id="Group_66" data-name="Group 66" transform="translate(-254 -314)">
    <g id="_028-maintenance" data-name="028-maintenance" transform="translate(337.204 397.204)">
      <g id="Group_3" data-name="Group 3" transform="translate(0)">
        <path id="Path_375" data-name="Path 375" d="M287.036,181.524l-5.156-.5a17.8,17.8,0,0,1-14.75-10.972l-.249-.594a17.93,17.93,0,0,1,2.581-18.5l3.126-3.775a3.687,3.687,0,0,0-.216-4.943l-18.095-18.326a3.687,3.687,0,0,0-4.978-.249l-3.805,3.151a17.913,17.913,0,0,1-18.539,2.566l-.572-.242A17.809,17.809,0,0,1,215.46,114.41l-.5-5.135A3.638,3.638,0,0,0,211.289,106H185.311a3.638,3.638,0,0,0-3.671,3.276l-.5,5.129A17.777,17.777,0,0,1,170.17,129.14l-.592.24a17.932,17.932,0,0,1-18.5-2.585l-3.775-3.128a3.687,3.687,0,0,0-4.959.232l-18.326,18.325a3.687,3.687,0,0,0-.232,4.959l3.143,3.8A17.93,17.93,0,0,1,129.5,169.53c-.081.189-.16.377-.235.557a17.834,17.834,0,0,1-14.75,10.939l-5.181.5A3.687,3.687,0,0,0,106,185.194v25.981a3.687,3.687,0,0,0,3.334,3.67l5.156.5a17.8,17.8,0,0,1,14.75,10.972l.249.594a17.929,17.929,0,0,1-2.581,18.5l-3.126,3.775a3.687,3.687,0,0,0,.232,4.959l18.326,18.326a3.687,3.687,0,0,0,4.958.233l3.807-3.152a17.91,17.91,0,0,1,18.539-2.566l.571.242a17.809,17.809,0,0,1,10.925,14.731l.5,5.135a3.638,3.638,0,0,0,3.671,3.276h25.981a3.638,3.638,0,0,0,3.671-3.276l.5-5.129a17.775,17.775,0,0,1,10.969-14.734l.6-.242a17.931,17.931,0,0,1,18.5,2.586L249.3,272.7a3.687,3.687,0,0,0,4.959-.232l18.326-18.325a3.687,3.687,0,0,0,.233-4.959l-3.151-3.8a17.915,17.915,0,0,1-2.563-18.545l.246-.584a17.811,17.811,0,0,1,14.71-10.922l4.978-.485a3.687,3.687,0,0,0,3.33-3.67V185.194a3.687,3.687,0,0,0-3.334-3.67ZM195.592,216.41a2.56,2.56,0,0,1,.749-1.857,2.708,2.708,0,0,1,1.844-.761v.007a2.791,2.791,0,0,1,2.673,2.606l.053,66.59h-5.294Zm12.693,63.6-.025-63.677a10.022,10.022,0,1,0-20.04.069l.024,63.03a25.028,25.028,0,0,0-6.361-12.868l-.03-34.394a61.39,61.39,0,0,0-11.112-35.044,33.169,33.169,0,0,1-5.867-18.974,33.574,33.574,0,0,1,16.989-29.237l.006,21.633a3.687,3.687,0,0,0,3.687,3.687l25.058.006a3.687,3.687,0,0,0,3.687-3.687l-.006-21.571a33.908,33.908,0,0,1,17.167,27.649,33.082,33.082,0,0,1-6.124,20.945,60.072,60.072,0,0,0-11,34.7l.03,34.723a25.053,25.053,0,0,0-6.089,13.014ZM283,207.83l-1.65.161a25.175,25.175,0,0,0-20.8,15.433l-.221.524a25.263,25.263,0,0,0,3.668,26.138l1.01,1.22-13.578,13.578-1.19-.983a25.28,25.28,0,0,0-26.082-3.693l-.536.224c-.641.265-1.262.561-1.872.873l-.025-29.034a52.64,52.64,0,0,1,9.621-30.4A40.39,40.39,0,0,0,238.83,176.3a41.388,41.388,0,0,0-26.959-36.533,3.687,3.687,0,0,0-4.953,3.465l.006,23.636-17.684,0-.006-23.671a3.687,3.687,0,0,0-4.939-3.468,40.972,40.972,0,0,0-19.62,61.61,54.073,54.073,0,0,1,9.8,30.851l.025,28.9c-.474-.233-.955-.457-1.447-.661l-.515-.218a25.259,25.259,0,0,0-26.138,3.668l-1.22,1.01L131.6,251.305l.983-1.19a25.281,25.281,0,0,0,3.692-26.085l-.223-.533A25.155,25.155,0,0,0,115.2,208l-1.821-.176V188.544l1.848-.178a25.2,25.2,0,0,0,20.85-15.448c.066-.159.132-.317.2-.484a25.284,25.284,0,0,0-3.673-26.157l-1-1.211,13.578-13.578,1.19.983a25.278,25.278,0,0,0,26.083,3.692l.535-.224a25.071,25.071,0,0,0,15.5-20.8l.175-1.764h19.283l.179,1.8a25.128,25.128,0,0,0,15.426,20.8l.516.2A25.264,25.264,0,0,0,250.2,132.5l1.206-1,13.376,13.546-1,1.205a25.281,25.281,0,0,0-3.692,26.085l.223.533a25.155,25.155,0,0,0,20.858,15.5l1.823.176Z" transform="translate(-106 -105.999)" fill="#00aded"/>
        <path id="Path_376" data-name="Path 376" d="M224.555,246.394a32.856,32.856,0,0,1-3.7-7.037,3.691,3.691,0,1,0-6.9,2.62,40.265,40.265,0,0,0,4.533,8.618,56.366,56.366,0,0,1,5.067,8.968,3.691,3.691,0,0,0,6.733-3.024,63.788,63.788,0,0,0-5.732-10.146Z" transform="translate(-147.521 -156.492)" fill="#00aded"/>
        <path id="Path_377" data-name="Path 377" d="M213.9,225.809a3.69,3.69,0,0,0,3.387-3.971c-.072-.907-.109-1.827-.109-2.735a3.691,3.691,0,0,0-7.381,0c0,1.1.044,2.219.132,3.321a3.691,3.691,0,0,0,3.675,3.4C213.7,225.821,213.8,225.817,213.9,225.809Z" transform="translate(-146.008 -148.174)" fill="#00aded"/>
      </g>
    </g>
    <g id="_046-tire" data-name="046-tire" transform="translate(254 314)">
      <path id="Path_386" data-name="Path 386" d="M308.75,61.26v0l0,0a175,175,0,1,0,0,247.49h0v0a175,175,0,0,0,0-247.479Zm26.2,128.008h16.462a166.015,166.015,0,0,1-11.857,57.778l-15.187-6.554a4.268,4.268,0,1,0-3.382,7.838l15.186,6.553a166.221,166.221,0,0,1-30.483,44.767l-11.64-11.643a4.268,4.268,0,1,0-6.035,6.037l11.64,11.64a166.016,166.016,0,0,1-49.24,32.476l-6.1-15.372a4.268,4.268,0,1,0-7.934,3.15l6.1,15.371a166.217,166.217,0,0,1-53.212,10.1V334.95a4.268,4.268,0,0,0-8.537,0v16.461a166.018,166.018,0,0,1-57.778-11.857l6.554-15.186a4.268,4.268,0,1,0-7.838-3.383l-6.551,15.182A166.251,166.251,0,0,1,70.35,305.686l11.643-11.639a4.269,4.269,0,0,0-6.037-6.037L64.314,299.65A166.01,166.01,0,0,1,31.84,250.412l15.372-6.1a4.268,4.268,0,1,0-3.15-7.934l-15.369,6.106a166.243,166.243,0,0,1-10.1-53.211H35.053a4.268,4.268,0,1,0,0-8.537H18.592a166.017,166.017,0,0,1,11.857-57.778l15.186,6.554a4.268,4.268,0,1,0,3.383-7.838l-15.185-6.553A166.236,166.236,0,0,1,64.315,70.349L75.954,81.991a4.269,4.269,0,1,0,6.037-6.037L70.35,64.313a166.011,166.011,0,0,1,49.239-32.474l6.1,15.372a4.268,4.268,0,1,0,7.934-3.15l-6.106-15.369a166.245,166.245,0,0,1,53.212-10.1V35.051a4.268,4.268,0,0,0,8.537,0V18.591a166.02,166.02,0,0,1,57.778,11.857l-6.553,15.186a4.268,4.268,0,1,0,7.838,3.383l6.553-15.185a166.251,166.251,0,0,1,44.768,30.483L288.01,75.952a4.268,4.268,0,1,0,6.036,6.037l11.64-11.64a166.01,166.01,0,0,1,32.477,49.238l-15.372,6.1a4.268,4.268,0,0,0,3.151,7.934l15.372-6.1a166.216,166.216,0,0,1,10.1,53.211H334.949a4.268,4.268,0,1,0,0,8.537Z" transform="translate(-10.002 -9.997)" fill="#00aded"/>
      <path id="Path_387" data-name="Path 387" d="M202.349,70.5C129.647,70.5,70.5,129.647,70.5,202.348S129.647,334.2,202.349,334.2,334.2,275.05,334.2,202.348,275.051,70.5,202.349,70.5Zm0,255.167a123.319,123.319,0,1,1,123.32-123.319A123.459,123.459,0,0,1,202.349,325.667Z" transform="translate(-27.35 -27.346)" fill="#00aded"/>
    </g>
  </g>
</svg>
